<?xml version="1.0" encoding="UTF-8" standalone="no"?>
<!DOCTYPE svg PUBLIC "-//W3C//DTD SVG 1.1//EN" "http://www.w3.org/Graphics/SVG/1.1/DTD/svg11.dtd">
<svg width="100%" height="100%" viewBox="0 0 4313 565" version="1.1" xmlns="http://www.w3.org/2000/svg" xmlns:xlink="http://www.w3.org/1999/xlink" xml:space="preserve" xmlns:serif="http://www.serif.com/" style="fill-rule:evenodd;clip-rule:evenodd;stroke-linejoin:round;stroke-miterlimit:2;">
    <g transform="matrix(5.55556,0,0,5.55556,0,0.0166667)">
        <g transform="matrix(1,0,0,1,0,-1)">
            <g>
                <g transform="matrix(1,0,0,1,0,0.597)">
                    <path d="M43.2,87.6L79.6,51.2L43.2,14.8C47.1,10.9 50,8 50.7,7.2C53.8,10.3 91.6,48.1 94.6,51.1C91.5,54.2 53.7,92 50.7,95C50,94.4 47.2,91.5 43.2,87.6ZM64.4,59.6C62,57.2 57.7,52.9 56,51.2C57.7,49.5 61.9,45.3 64.4,42.8C68.6,47 71.9,50.3 72.8,51.2C71.9,52.1 68.6,55.4 64.4,59.6ZM6.9,51.2C9,49.1 27.5,30.6 39.9,18.2C43.9,22.2 53.2,31.5 61,39.3L49.1,51.2L60.9,63C53.3,70.7 44,80 39.8,84.2C27.5,71.8 9,53.3 6.9,51.2ZM50.8,0.4L0,51.2L50.8,102L101.6,51.2L50.8,0.4Z" style="fill:rgb(0,23,34);fill-rule:nonzero;"/>
                </g>
                <path d="M64.4,60.2C62,57.8 57.7,53.5 56,51.8C57.7,50.1 61.9,45.9 64.4,43.4C68.6,47.6 71.9,50.9 72.8,51.8C71.9,52.7 68.6,56 64.4,60.2" style="fill:rgb(255,57,7);fill-rule:nonzero;"/>
                <path d="M6.9,51.8C9,49.7 27.5,31.2 39.9,18.8C43.9,22.8 53.2,32.1 61,39.9L49.1,51.8L60.9,63.6C53.3,71.3 44,80.6 39.8,84.8C27.4,72.4 9,53.9 6.9,51.8" style="fill:rgb(0,181,190);fill-rule:nonzero;"/>
                <path d="M43.2,88.2L79.6,51.8L43.2,15.4C47.1,11.5 50,8.6 50.7,7.8C53.8,10.9 91.6,48.7 94.6,51.7C91.5,54.8 53.7,92.6 50.7,95.6C50,95 47.2,92.1 43.2,88.2" style="fill:rgb(180,220,45);fill-rule:nonzero;"/>
                <path d="M163.1,59.7L153,29.3L143.1,59.7L163.1,59.7ZM165.7,67.9L140.5,67.9L136.9,79.1L125.2,79.1L144.6,20.8L161.2,20.8L180.9,79.1L169.4,79.1L165.7,67.9Z" style="fill:white;fill-rule:nonzero;"/>
                <path d="M237.7,20.8L237.7,30.1L205.5,69.5L205.5,69.8L238.1,69.8L238.1,79.1L191.5,79.1L191.5,69.7L223.4,30.5L223.4,30.1L192.9,30.1L192.9,20.8L237.7,20.8Z" style="fill:white;fill-rule:nonzero;"/>
                <path d="M277.1,30.7L277.1,79.1L266,79.1L266,30.7L249.2,30.7L249.2,20.8L294.5,20.8L294.5,30.7L277.1,30.7Z" style="fill:white;fill-rule:nonzero;"/>
                <path d="M318.8,30.1L318.8,45.2L346.1,45.2L346.1,53.3L318.8,53.3L318.8,69.8L347.8,69.8L347.8,79.1L307.7,79.1L307.7,20.8L347.6,20.8L347.6,30.1L318.8,30.1Z" style="fill:white;fill-rule:nonzero;"/>
                <path d="M400.8,62.7C400.6,65.5 399.8,67.4 398.4,68.4C396.8,69.5 393.2,70.1 387.7,70.1C380.9,70.1 376.9,69.1 375.7,67C374.5,64.9 373.8,58.4 373.8,47.2C373.8,38.9 374.5,34 375.9,32.3C377.3,30.6 381.4,29.8 388.3,29.8C393.4,29.8 396.7,30.3 398.1,31.4C399.2,32.2 399.9,33.9 400.1,36.3L411.2,36.3C410.9,30.3 409.5,26.2 407.1,24C404.3,21.5 398.7,20.3 390.4,20.3C379,20.3 371.5,21.8 367.9,24.9C364.3,27.9 362.5,34.3 362.5,43.9C362.5,60.2 363.8,70.3 366.5,74C369.1,77.7 376.2,79.6 387.7,79.6C397.8,79.6 404.4,78.4 407.3,76.1C410,74 411.4,69.5 411.7,62.8L400.8,62.8L400.8,62.7ZM561.7,39.6C561.7,43.3 560.9,45.9 559.4,47.2C557.8,48.5 554.7,49.2 550.1,49.2L532.8,49.2L532.8,28.3L552.3,28.3C556.3,28.3 558.9,29 560,30.3C561.1,31.7 561.7,34.8 561.7,39.6M561.4,52.6C563.9,51.8 566,50.8 567.1,49.1C568.5,46.9 569.2,43.3 569.2,38C569.2,32 567.9,27.7 565.3,25.2C562.7,22.7 558.3,21.5 552.2,21.5L525,21.5L525,78.4L532.8,78.4L532.8,56L553,56C555.6,56 557.5,56.7 558.7,58.2C560,59.7 560.6,62 560.6,65L560.6,78.5L568.3,78.5L568.3,63.5C568.3,57.4 565.9,53.9 561.4,52.6M615.1,27.7C622.5,27.7 627.3,28.5 629.2,30C631.1,31.5 632,35.2 632,41.1L632,49.9C632,63.9 630.9,68.3 629.9,69.5C629,70.7 625.7,72.1 615.1,72.1C604.5,72.1 601.2,70.7 600.3,69.5C599.4,68.2 598.2,63.8 598.2,49.9C598.2,35.9 599.3,31.6 600.3,30.3C601.2,29.1 604.5,27.7 615.1,27.7M635.3,25.8C632.5,22.5 625.9,21 615.1,21C605.8,21 599.6,22.4 596.1,25.2C592.6,28 590.9,33.3 590.9,40.9L590.8,46.1L590.8,50C590.8,63.1 592.1,71 594.8,74.2C597.5,77.5 604.2,79.1 615.2,79.1C626.2,79.1 632.9,77.5 635.6,74.2C638.3,70.9 639.6,62.8 639.6,49.3C639.4,36.7 638.1,29 635.3,25.8M700.1,21.5L700.1,61C700.1,67.3 698.8,69.5 697.7,70.3C696.6,71.1 693.4,72.1 684.6,72.1C676.5,72.1 673.5,71.1 672.5,70.3C671.5,69.5 670.2,67.2 670.2,61L670.2,21.5L662.4,21.5L662.4,62.9C662.4,69.1 664.1,73.4 667.3,75.6C670.5,77.8 676.3,78.9 685,78.9C694.3,78.9 700.3,77.8 703.3,75.4C706.3,73 707.8,68.3 707.8,61L707.8,21.5L700.1,21.5Z" style="fill:white;fill-rule:nonzero;"/>
                <g transform="matrix(1,0,0,1,733,20.597)">
                    <path d="M35.7,19.3C35.7,23.6 34.9,26.3 33.4,27.4C32.3,28.2 29.4,29.2 21.9,29.2L7.9,29.2L7.9,7.7L26.4,7.7C31.6,7.7 33.5,8.7 34.2,9.5C34.9,10.5 35.7,12.9 35.7,19.3M39.6,4.8C37.1,2.2 32.8,1 26.3,1L0.2,1L0.2,57.9L7.9,57.9L7.9,36L25.6,36C32.4,36 36.9,34.8 39.4,32.3C42,29.8 43.2,25.4 43.2,18.8C43.2,11.9 42,7.4 39.6,4.8" style="fill:white;fill-rule:nonzero;"/>
                </g>
                <path d="M501.4,49.4L476.2,49.4L476.2,56.2L493.9,56.2C494,57.1 494.1,58.9 494.1,58.9C494.1,66.6 492.9,69.3 491.9,70.2C490.9,71.2 488.1,72.3 480,72.3C469.4,72.3 465.6,71.1 464.3,70.1C463.1,69.1 461.6,66.2 461.6,57.8L461.6,42.6C461.6,34.3 462.9,31.3 464.1,30.2C465.2,29.1 468.4,27.8 477.1,27.8C486.6,27.8 490.1,28.6 491.3,29.3C492.9,30.2 493.7,32.8 493.7,37L493.7,38.3L501.3,38.3L501.3,36.3C501.3,29.9 499.8,25.7 496.9,23.8C494,21.9 487.9,21 478.3,21C468.6,21 462.3,22.4 459.1,25.2C455.8,28.1 454.2,33.6 454.2,42.1L454.2,55.2C454.2,65.3 455.6,71.6 458.6,74.6C461.6,77.5 467.9,79 478,79C488.6,79 495.1,77.8 497.7,75.2C500.3,72.7 501.6,66.4 501.6,56.1L501.4,49.4Z" style="fill:white;fill-rule:nonzero;"/>
            </g>
        </g>
    </g>
</svg>
