<svg width="19" height="22" viewBox="0 0 19 22" fill="none" xmlns="http://www.w3.org/2000/svg">
<path d="M4.22222 9.9H6.33333V12.1H4.22222V9.9ZM19 4.4V19.8C19 21.01 18.05 22 16.8889 22H2.11111C0.939444 22 0 21.01 0 19.8L0.0105555 4.4C0.0105555 3.19 0.939444 2.2 2.11111 2.2H3.16667V0H5.27778V2.2H13.7222V0H15.8333V2.2H16.8889C18.05 2.2 19 3.19 19 4.4ZM2.11111 6.6H16.8889V4.4H2.11111V6.6ZM16.8889 19.8V8.8H2.11111V19.8H16.8889ZM12.6667 12.1H14.7778V9.9H12.6667V12.1ZM8.44444 12.1H10.5556V9.9H8.44444V12.1Z" fill="white"/>
</svg>
