<svg width="14" height="22" viewBox="0 0 14 22" fill="none" xmlns="http://www.w3.org/2000/svg">
<path d="M7.53635 9.65555C4.41454 8.93444 3.41061 8.18889 3.41061 7.02778C3.41061 5.69556 4.79961 4.76667 7.12377 4.76667C9.57171 4.76667 10.4794 5.80556 10.5619 7.33333H13.6012C13.5049 5.23111 12.0609 3.3 9.18664 2.67667V0H5.0609V2.64C2.39293 3.15333 0.247544 4.69333 0.247544 7.05222C0.247544 9.87556 2.87426 11.2811 6.7112 12.1C10.1493 12.8333 10.8369 13.9089 10.8369 15.0456C10.8369 15.8889 10.1631 17.2333 7.12377 17.2333C4.29077 17.2333 3.17682 16.1089 3.02554 14.6667H0C0.165029 17.3433 2.42043 18.8467 5.0609 19.3478V22H9.18664V19.3722C11.8684 18.92 14 17.5389 14 15.0333C14 11.5622 10.6582 10.3767 7.53635 9.65555Z" fill="white"/>
</svg>
