<svg width="15" height="22" viewBox="0 0 15 22" fill="none" xmlns="http://www.w3.org/2000/svg">
<path d="M7.5 0C3.35357 0 0 3.443 0 7.7C0 13.475 7.5 22 7.5 22C7.5 22 15 13.475 15 7.7C15 3.443 11.6464 0 7.5 0ZM2.14286 7.7C2.14286 4.664 4.54286 2.2 7.5 2.2C10.4571 2.2 12.8571 4.664 12.8571 7.7C12.8571 10.868 9.77143 15.609 7.5 18.568C5.27143 15.631 2.14286 10.835 2.14286 7.7Z" fill="white"/>
<path d="M8 10C9.65685 10 11 8.65685 11 7C11 5.34315 9.65685 4 8 4C6.34315 4 5 5.34315 5 7C5 8.65685 6.34315 10 8 10Z" fill="white"/>
</svg>
