<svg width="22" height="15" viewBox="0 0 22 15" fill="none" xmlns="http://www.w3.org/2000/svg">
<path d="M7.7 9.375C5.126 9.375 0 10.6286 0 13.125V15H15.4V13.125C15.4 10.6286 10.274 9.375 7.7 9.375ZM2.574 12.8571C3.498 12.2357 5.731 11.5179 7.7 11.5179C9.669 11.5179 11.902 12.2357 12.826 12.8571H2.574ZM7.7 7.5C9.823 7.5 11.55 5.81786 11.55 3.75C11.55 1.68214 9.823 0 7.7 0C5.577 0 3.85 1.68214 3.85 3.75C3.85 5.81786 5.577 7.5 7.7 7.5ZM7.7 2.14286C8.613 2.14286 9.35 2.86071 9.35 3.75C9.35 4.63929 8.613 5.35714 7.7 5.35714C6.787 5.35714 6.05 4.63929 6.05 3.75C6.05 2.86071 6.787 2.14286 7.7 2.14286ZM15.444 9.43929C16.72 10.3393 17.6 11.5393 17.6 13.125V15H22V13.125C22 10.9607 18.15 9.72857 15.444 9.43929ZM14.3 7.5C16.423 7.5 18.15 5.81786 18.15 3.75C18.15 1.68214 16.423 0 14.3 0C13.706 0 13.156 0.139286 12.65 0.375C13.343 1.32857 13.75 2.49643 13.75 3.75C13.75 5.00357 13.343 6.17143 12.65 7.125C13.156 7.36071 13.706 7.5 14.3 7.5Z" fill="white"/>
</svg>
