<svg width="18" height="18" viewBox="0 0 18 18" fill="none" xmlns="http://www.w3.org/2000/svg">
<g opacity="0.5">
<path d="M11.291 10.1761H10.7038L10.4957 9.97541C11.2241 9.12807 11.6627 8.02802 11.6627 6.83133C11.6627 4.16295 9.49971 2 6.83133 2C4.16295 2 2 4.16295 2 6.83133C2 9.49971 4.16295 11.6627 6.83133 11.6627C8.02802 11.6627 9.12807 11.2241 9.97541 10.4957L10.1761 10.7038V11.291L13.8925 15L15 13.8925L11.291 10.1761ZM6.83133 10.1761C4.98056 10.1761 3.48656 8.6821 3.48656 6.83133C3.48656 4.98056 4.98056 3.48656 6.83133 3.48656C8.6821 3.48656 10.1761 4.98056 10.1761 6.83133C10.1761 8.6821 8.6821 10.1761 6.83133 10.1761Z" fill="white"/>
</g>
</svg>
